<svg width="30" height="30" viewBox="0 0 30 30" fill="none" xmlns="http://www.w3.org/2000/svg">
<path d="M21.5001 15H8.49995M21.5001 15C25.0899 15 28 12.0899 28 8.5C28 4.91015 25.0899 2 21.5 2H8.49995C4.91004 2 1.99988 4.91028 2 8.50021C2.00012 12.09 4.91021 15 8.49995 15M21.5001 15C25.0899 15 28 17.9101 28 21.5C28 25.0899 25.0899 28 21.5001 28H8.49995C4.91021 28 2.00012 25.09 2 21.5002C1.99988 17.9103 4.91004 15 8.49995 15M22.3121 8.5H14.1872M22.3121 21.5H14.1872M7.68724 21.6222V21.5M7.68724 8.5V8.37781" stroke="currentColor" stroke-width="3" stroke-linecap="round" stroke-linejoin="round"/>
</svg>
