<svg width="25" height="30" viewBox="0 0 25 30" fill="none" xmlns="http://www.w3.org/2000/svg">
    <path
        d="M16.5386 2V6.875C16.5386 7.77247 17.2618 8.5 18.154 8.5H23M7.65421 23.125V16.625M12.5003 23.125L12.5003 10.125M17.3463 23.125V16.625M20.577 4.4375C19.858 3.7904 19.112 3.02291 18.6411 2.52444C18.3277 2.19274 17.8946 2 17.4397 2H5.23082C3.44656 2 2.00014 3.45507 2.00012 5.24998L2 24.7499C1.99999 26.5448 3.44641 27.9999 5.23068 27.9999L19.7689 28C21.5531 28 22.9995 26.545 22.9996 24.7501L23 7.52207C23 7.10656 22.8424 6.70713 22.5558 6.40799C22.0257 5.85484 21.1404 4.94466 20.577 4.4375Z"
        stroke="currentColor" stroke-width="3" stroke-linecap="round" stroke-linejoin="round" />
</svg>
